<svg width="27" height="33" viewBox="0 0 27 33" fill="none" xmlns="http://www.w3.org/2000/svg">
<path d="M6.61096 24.8823C4.57682 23.7443 2.95875 22.1604 1.77217 20.1304C0.585586 18.1004 0 15.8091 0 13.2716C0 10.7342 0.585586 8.44277 1.77217 6.42819C2.95875 4.41362 4.56141 2.82964 6.61096 1.70701C8.64511 0.569004 10.8796 0 13.299 0C15.7492 0 17.9837 0.569004 20.0178 1.70701C22.052 2.84502 23.6546 4.41362 24.8258 6.42819C25.997 8.44277 26.5825 10.7188 26.5825 13.2716C26.5825 15.8091 25.997 18.1004 24.8258 20.1304C23.6546 22.1604 22.052 23.7443 20.0178 24.8823C17.9837 26.0204 15.7492 26.5894 13.299 26.5894C10.8796 26.574 8.64511 26.0204 6.61096 24.8823ZM17.9066 21.699C19.2473 20.9147 20.3106 19.7921 21.0657 18.3311C21.8208 16.8702 22.206 15.1785 22.206 13.2716C22.206 11.3493 21.8208 9.67305 21.0657 8.22748C20.3106 6.7819 19.2473 5.67465 17.9066 4.90573C16.5659 4.13681 15.0249 3.75234 13.299 3.75234C11.573 3.75234 10.0474 4.13681 8.69134 4.90573C7.35065 5.67465 6.28735 6.7819 5.53225 8.22748C4.77715 9.67305 4.3919 11.3493 4.3919 13.2716C4.3919 15.1939 4.77715 16.8856 5.53225 18.3311C6.28735 19.7921 7.35065 20.9147 8.69134 21.699C10.032 22.4833 11.573 22.8832 13.299 22.8832C15.0249 22.8832 16.5659 22.4833 17.9066 21.699Z" fill="#232323"/>
<path d="M13.3 25.7297L23.5786 28.1903V32.2963L13.3 29.8358V25.7297Z" fill="#232323"/>
</svg>
