<svg width="40" height="41" viewBox="0 0 40 41" fill="none" xmlns="http://www.w3.org/2000/svg">
<rect y="0.5" width="40" height="40" rx="20" fill="#00B0F2"/>
<path d="M11.2374 18.888C16.0692 16.63 19.2912 15.1414 20.9033 14.4222C25.5063 12.3687 26.4627 12.012 27.0861 12.0001C27.2232 11.9976 27.5298 12.0341 27.7284 12.2069C27.8961 12.3529 27.9422 12.55 27.9643 12.6884C27.9864 12.8267 28.0139 13.1419 27.992 13.3882C27.7426 16.1993 26.6633 23.021 26.1142 26.1694C25.8818 27.5017 25.4244 27.9484 24.9815 27.9921C24.0189 28.0871 23.288 27.3098 22.3558 26.6543C20.897 25.6287 20.0729 24.9902 18.6569 23.9894C17.0205 22.8327 18.0813 22.197 19.0139 21.158C19.258 20.8861 23.4988 16.7488 23.5809 16.3734C23.5912 16.3265 23.6007 16.1515 23.5038 16.0591C23.4069 15.9667 23.2639 15.9983 23.1606 16.0235C23.0143 16.0591 20.6839 17.7112 16.1694 20.9798C15.5079 21.467 14.9087 21.7044 14.3719 21.692C13.7801 21.6782 12.6417 21.3331 11.7955 21.038C10.7575 20.6761 9.93252 20.4848 10.0044 19.8701C10.0418 19.55 10.4528 19.2226 11.2374 18.888Z" fill="white"/>
</svg>
