<svg width="96" height="29" viewBox="0 0 96 29" fill="none" xmlns="http://www.w3.org/2000/svg">
<path d="M7.72008 0.339294H12.4837L4.92379 28.8383H0.160156L7.72008 0.339294Z" fill="white"/>
<path d="M16.6172 28.8383V0.339294H33.686V5.10372H21.3615V12.2085H31.324V16.9593H21.3615V28.8335L16.6172 28.8383Z" fill="white"/>
<path d="M36.2461 28.8383V0.339294H47.4873C49.4031 0.339294 50.9748 0.725307 52.2026 1.49734C53.4303 2.26937 54.3424 3.25564 54.9389 4.45614C55.5247 5.60797 55.8316 6.88263 55.8346 8.17628C55.8346 9.74692 55.4638 11.0797 54.7222 12.1745C54.0087 13.2512 52.9378 14.038 51.7006 14.3943V13.4016C53.4848 13.8113 54.839 14.6624 55.763 15.9549C56.687 17.2475 57.1497 18.7183 57.151 20.3674C57.151 22.0573 56.8286 23.5352 56.1837 24.8012C55.5489 26.0589 54.5501 27.0938 53.3188 27.7697C52.0523 28.4828 50.4874 28.8393 48.6238 28.8393L36.2461 28.8383ZM41.0494 11.7195H47.4331C48.0656 11.7304 48.692 11.595 49.2641 11.3237C49.7937 11.067 50.2381 10.6618 50.5438 10.1569C50.8591 9.64158 51.0168 9.00827 51.0168 8.25699C51.0168 7.26715 50.7018 6.44229 50.0718 5.7824C49.4418 5.12251 48.5622 4.79289 47.4331 4.79354H41.0494V11.7195ZM41.0494 24.3461H48.0386C48.8096 24.3591 49.5725 24.186 50.2633 23.8415C50.902 23.5218 51.4383 23.0278 51.8109 22.4161C52.1849 21.8029 52.3719 21.0739 52.3719 20.2293C52.3834 19.5124 52.214 18.8042 51.8795 18.1709C51.5476 17.5576 51.0491 17.0518 50.4422 16.7124C49.8129 16.3494 49.0584 16.1679 48.1789 16.1679H41.0494V24.3461Z" fill="white"/>
<path d="M62.7498 2.40939H62.3203V26.7692H62.7498V2.40939Z" fill="white"/>
<path d="M67.918 5.97591V2.62915H68.3049V5.98077L67.918 5.97591Z" fill="white"/>
<path d="M70.8741 5.97591V4.35018C70.887 4.1853 70.8373 4.02164 70.7349 3.89221C70.677 3.83755 70.6083 3.79578 70.5333 3.76964C70.4583 3.7435 70.3787 3.73358 70.2996 3.74052C70.0385 3.74052 69.8469 3.8115 69.7251 3.95346C69.6032 4.09542 69.5423 4.33073 69.5423 4.65743V5.97591H69.1641V3.46341H69.4716L69.5336 3.80664H69.5519C69.6305 3.67998 69.7436 3.57872 69.8779 3.51494C70.0244 3.44762 70.184 3.41439 70.3451 3.41771C70.6459 3.41771 70.8732 3.49063 71.0221 3.63648C71.1711 3.78233 71.2504 4.01569 71.2504 4.33656V5.97591H70.8741Z" fill="white"/>
<path d="M72.8367 5.70754C72.9015 5.70787 72.9662 5.70267 73.0301 5.69199C73.0801 5.68512 73.1295 5.67505 73.1781 5.66185V5.95355C73.1202 5.97795 73.0594 5.99463 72.9972 6.00314C72.926 6.0152 72.8538 6.02171 72.7816 6.02258C72.2986 6.02258 72.0571 5.76653 72.0571 5.25444V3.75899H71.6992V3.57522L72.0571 3.4177L72.2167 2.88098H72.4353V3.46438H73.1607V3.75608H72.4353V5.23402C72.427 5.3597 72.4652 5.48403 72.5426 5.58309C72.5795 5.62438 72.6249 5.65696 72.6758 5.67848C72.7266 5.7 72.7816 5.70992 72.8367 5.70754Z" fill="white"/>
<path d="M74.7336 6.02161C74.573 6.02937 74.4125 6.00319 74.2626 5.94473C74.1126 5.88628 73.9766 5.79687 73.8631 5.68226C73.6497 5.45603 73.543 5.14197 73.543 4.74007C73.543 4.33461 73.6397 4.01374 73.8399 3.77455C73.9371 3.65739 74.0598 3.56427 74.1985 3.50239C74.3372 3.44052 74.4882 3.41154 74.6398 3.4177C74.7787 3.41094 74.9174 3.43526 75.0459 3.48889C75.1744 3.54253 75.2894 3.62415 75.3827 3.72787C75.573 3.95689 75.6707 4.24948 75.6564 4.54755V4.78772H73.9347C73.9424 5.08331 74.0166 5.30726 74.1572 5.4596C74.2343 5.53798 74.3272 5.59897 74.4296 5.63853C74.532 5.67809 74.6415 5.69532 74.751 5.68906C75.0257 5.68794 75.2973 5.63037 75.549 5.51988V5.85826C75.4271 5.91274 75.3001 5.95476 75.1699 5.98368C75.0261 6.0113 74.88 6.02401 74.7336 6.02161ZM74.6311 3.73565C74.5413 3.73073 74.4515 3.74558 74.3679 3.77917C74.2844 3.81276 74.2092 3.86428 74.1475 3.93012C74.0194 4.08365 73.9453 4.27539 73.9366 4.4756H75.2424C75.2558 4.27878 75.1996 4.08353 75.0838 3.92429C75.0273 3.86069 74.9572 3.81071 74.8789 3.77806C74.8005 3.7454 74.7158 3.73091 74.6311 3.73565Z" fill="white"/>
<path d="M77.4402 3.41771C77.5405 3.41652 77.6406 3.42564 77.7391 3.44493L77.6868 3.79789C77.5971 3.77624 77.5053 3.7645 77.4131 3.76288C77.3138 3.76283 77.2157 3.78505 77.126 3.82795C77.0363 3.87084 76.9573 3.93333 76.8947 4.01083C76.7485 4.18191 76.6715 4.4019 76.679 4.62729V5.97591H76.3008V3.46341H76.6132L76.6558 3.92818H76.6741C76.7554 3.77771 76.8703 3.64824 77.0098 3.54994C77.1365 3.46275 77.2867 3.41661 77.4402 3.41771Z" fill="white"/>
<path d="M79.9141 5.9759V4.35016C79.9257 4.1851 79.8745 4.02178 79.771 3.89317C79.7129 3.83853 79.6441 3.7968 79.5689 3.77066C79.4938 3.74453 79.414 3.73459 79.3348 3.74148C79.0768 3.74148 78.8853 3.81246 78.7602 3.95442C78.6383 4.09638 78.5784 4.33169 78.5784 4.65839V5.97687H78.1992V3.4634H78.5136L78.5745 3.80663H78.5929C78.6714 3.67997 78.7846 3.57871 78.9188 3.51493C79.0653 3.4477 79.225 3.41447 79.386 3.41769C79.6878 3.41769 79.9135 3.49062 80.0631 3.63647C80.2127 3.78232 80.2888 4.01568 80.2914 4.33655V5.9759H79.9141Z" fill="white"/>
<path d="M82.6097 5.97591L82.5343 5.61809H82.5159C82.4184 5.75253 82.2908 5.8621 82.1435 5.93799C81.9962 5.99784 81.8381 6.02631 81.6793 6.02161C81.4683 6.03266 81.2611 5.9632 81.0989 5.82714C81.0265 5.75641 80.9702 5.67079 80.9338 5.57613C80.8974 5.48148 80.8818 5.38003 80.8881 5.27875C80.8881 4.77184 81.2917 4.50607 82.099 4.48143L82.5237 4.46782V4.31128C82.536 4.15506 82.4909 3.99972 82.3969 3.8747C82.3431 3.82376 82.2792 3.78486 82.2093 3.76055C82.1395 3.73625 82.0653 3.7271 81.9917 3.73371C81.7448 3.74437 81.5034 3.81084 81.2856 3.92818L81.1686 3.63648C81.2969 3.56764 81.433 3.51444 81.5738 3.47799C81.7178 3.44017 81.8661 3.42089 82.0149 3.42062C82.3128 3.42062 82.5333 3.48771 82.6774 3.61995C82.8216 3.75219 82.8931 3.9661 82.8931 4.25975V5.97493L82.6097 5.97591ZM81.7547 5.70754C81.958 5.71867 82.1575 5.6488 82.3099 5.51308C82.3794 5.44128 82.4332 5.35566 82.4679 5.26172C82.5025 5.16778 82.5172 5.0676 82.5111 4.9676V4.74104L82.1329 4.75661C81.8321 4.7673 81.6145 4.81495 81.4819 4.89857C81.4165 4.9389 81.3634 4.99648 81.3283 5.06505C81.2931 5.13362 81.2774 5.21056 81.2827 5.2875C81.2785 5.34584 81.2875 5.40437 81.3089 5.45875C81.3303 5.51313 81.3637 5.56194 81.4065 5.60156C81.5059 5.67825 81.6297 5.71593 81.7547 5.70754Z" fill="white"/>
<path d="M84.4744 5.70754C84.5392 5.70779 84.6039 5.70259 84.6678 5.69199C84.7177 5.68493 84.7671 5.67486 84.8158 5.66185V5.95355C84.7579 5.97782 84.6971 5.99449 84.6349 6.00314C84.5636 6.01516 84.4915 6.02166 84.4192 6.02258C83.9356 6.02258 83.6938 5.76653 83.6938 5.25444V3.75899H83.3359V3.57522L83.6938 3.4177L83.8534 2.88098H84.073V3.46438H84.8013V3.75608H84.0768V5.23402C84.0683 5.35958 84.1062 5.4839 84.1832 5.58309C84.2198 5.62389 84.2648 5.65616 84.3151 5.67766C84.3654 5.69916 84.4198 5.70936 84.4744 5.70754Z" fill="white"/>
<path d="M85.2864 2.78181C85.2829 2.7467 85.2867 2.71123 85.2977 2.67773C85.3087 2.64422 85.3266 2.61342 85.3503 2.58734C85.3937 2.54771 85.4503 2.52576 85.5089 2.52576C85.5676 2.52576 85.6241 2.54771 85.6675 2.58734C85.7102 2.6416 85.7334 2.70875 85.7334 2.77792C85.7334 2.84709 85.7102 2.91423 85.6675 2.96849C85.6468 2.98906 85.6221 3.00525 85.5951 3.01611C85.568 3.02696 85.539 3.03226 85.5099 3.0317C85.4804 3.03269 85.451 3.0276 85.4236 3.01673C85.3961 3.00586 85.3712 2.98944 85.3503 2.96849C85.3279 2.94318 85.3107 2.91364 85.2997 2.88159C85.2888 2.84954 85.2843 2.81562 85.2864 2.78181ZM85.6966 5.97591H85.3184V3.46341H85.6966V5.97591Z" fill="white"/>
<path d="M88.656 4.71673C88.656 5.12608 88.5593 5.44598 88.3484 5.67643C88.2404 5.79285 88.1082 5.88408 87.9614 5.94371C87.8145 6.00334 87.6564 6.02993 87.4982 6.0216C87.2891 6.02564 87.083 5.97074 86.9034 5.86311C86.7273 5.75559 86.5875 5.5974 86.502 5.40903C86.403 5.19208 86.3544 4.95534 86.3598 4.71673C86.3598 4.30705 86.4617 3.98813 86.6654 3.75996C86.8692 3.53179 87.152 3.4177 87.5137 3.4177C87.6698 3.41055 87.8254 3.43824 87.9696 3.49876C88.1138 3.55928 88.2428 3.65114 88.3475 3.76774C88.5538 4.00239 88.6566 4.31872 88.656 4.71673ZM86.7525 4.71673C86.7525 5.0376 86.817 5.28231 86.9459 5.45084C87.0173 5.52995 87.1043 5.59316 87.2014 5.63643C87.2986 5.67969 87.4036 5.70203 87.5098 5.70203C87.616 5.70203 87.7211 5.67969 87.8182 5.63643C87.9153 5.59316 88.0024 5.52995 88.0737 5.45084C88.2027 5.2836 88.2672 5.03858 88.2672 4.71576C88.2672 4.39684 88.2033 4.15375 88.0737 3.98845C88.0055 3.90441 87.9183 3.83797 87.8194 3.79467C87.7205 3.75137 87.6127 3.73247 87.505 3.73954C87.3988 3.73239 87.2925 3.7509 87.1949 3.79353C87.0973 3.83616 87.0112 3.90167 86.944 3.98457C86.8154 4.14986 86.7525 4.39294 86.7525 4.71673Z" fill="white"/>
<path d="M91.0304 5.97591V4.35018C91.0433 4.1853 90.9935 4.02164 90.8911 3.89221C90.833 3.83758 90.7642 3.79584 90.689 3.7697C90.6139 3.74357 90.5341 3.73363 90.4549 3.74052C90.197 3.74052 90.0054 3.8115 89.8803 3.95346C89.7594 4.09542 89.6985 4.33073 89.6985 4.65743V5.97591H89.3203V3.46341H89.6279L89.6888 3.80664H89.7072C89.7862 3.68034 89.8992 3.57918 90.0332 3.51494C90.18 3.44761 90.34 3.41437 90.5013 3.41771C90.8018 3.41771 91.0275 3.49063 91.1784 3.63648C91.3293 3.78233 91.4054 4.01569 91.4066 4.33656V5.97591H91.0304Z" fill="white"/>
<path d="M93.7231 5.97591L93.6476 5.61809H93.6293C93.5317 5.75253 93.4042 5.8621 93.2569 5.93799C93.1096 5.99803 92.9515 6.02651 92.7926 6.02161C92.5816 6.03305 92.3742 5.96354 92.2123 5.82714C92.1397 5.75653 92.0833 5.67092 92.0469 5.57624C92.0105 5.48155 91.995 5.38005 92.0014 5.27875C92.0014 4.77184 92.4048 4.50607 93.2114 4.48143L93.636 4.46782V4.31128C93.6484 4.15506 93.6033 3.99972 93.5093 3.8747C93.4557 3.82383 93.3919 3.78497 93.3222 3.76067C93.2525 3.73637 93.1785 3.72718 93.105 3.73371C92.8578 3.74422 92.6161 3.8107 92.398 3.92818L92.2819 3.63648C92.4098 3.56749 92.5456 3.51427 92.6862 3.47799C92.8303 3.44029 92.9785 3.42102 93.1273 3.42062C93.4252 3.42062 93.6467 3.48771 93.7898 3.61995C93.933 3.75219 94.0055 3.9661 94.0055 4.25975V5.97493L93.7231 5.97591ZM92.8681 5.70754C92.9688 5.71337 93.0696 5.6992 93.1649 5.66583C93.2602 5.63247 93.348 5.58056 93.4233 5.51308C93.4929 5.44133 93.5468 5.35574 93.5817 5.26181C93.6165 5.16788 93.6314 5.06766 93.6254 4.9676V4.74104L93.2463 4.75661C92.9454 4.7673 92.7278 4.81495 92.5953 4.89857C92.5299 4.9389 92.4768 4.99648 92.4416 5.06505C92.4065 5.13362 92.3907 5.21056 92.3961 5.2875C92.3923 5.3458 92.4014 5.4042 92.4228 5.45851C92.4443 5.51282 92.4774 5.56168 92.5199 5.60156C92.6193 5.67809 92.7431 5.71575 92.8681 5.70754Z" fill="white"/>
<path d="M95.1594 5.9759H94.7812V2.40842H95.1594V5.9759Z" fill="white"/>
<path d="M68.3049 11.737H67.918V8.38535H69.776V8.7315H68.3049V9.9576H69.687V10.3038H68.3049V11.737Z" fill="white"/>
<path d="M70.2395 8.54383C70.2361 8.50873 70.24 8.4733 70.251 8.43981C70.262 8.40632 70.2798 8.37551 70.3033 8.34937C70.3247 8.32922 70.3497 8.31351 70.3771 8.30316C70.4045 8.29282 70.4337 8.28803 70.4629 8.28908C70.5214 8.28817 70.5779 8.31013 70.6206 8.35034C70.6632 8.40482 70.6863 8.4721 70.6863 8.5414C70.6863 8.61069 70.6632 8.67798 70.6206 8.73246C70.5783 8.77329 70.5216 8.79566 70.4629 8.79469C70.4335 8.79564 70.4042 8.79063 70.3768 8.77994C70.3494 8.76924 70.3244 8.7531 70.3033 8.73246C70.2808 8.70686 70.2635 8.67699 70.2525 8.6446C70.2416 8.61222 70.2371 8.57796 70.2395 8.54383ZM70.6496 11.737H70.2714V9.22446H70.6496V11.737Z" fill="white"/>
<path d="M73.1622 11.7369V10.1161C73.1749 9.95122 73.1252 9.78763 73.0229 9.65811C72.965 9.60355 72.8964 9.56185 72.8214 9.53572C72.7464 9.50959 72.6668 9.49961 72.5877 9.50642C72.3265 9.50642 72.135 9.57838 72.0132 9.72034C71.8913 9.8623 71.8303 10.0966 71.8303 10.4233V11.7418H71.4531V9.22445H71.7607L71.8226 9.56865H71.841C71.9192 9.44171 72.0325 9.34036 72.1669 9.27695C72.3132 9.20908 72.473 9.17582 72.6341 9.17972C72.9346 9.17972 73.1603 9.25264 73.3112 9.39849C73.4621 9.54434 73.5378 9.7777 73.5385 10.0986V11.7379L73.1622 11.7369Z" fill="white"/>
<path d="M75.1306 11.4686C75.1954 11.4687 75.2601 11.4639 75.3241 11.454C75.374 11.4468 75.4234 11.4364 75.4721 11.4229V11.7146C75.4145 11.7398 75.3535 11.7565 75.2912 11.7642C75.2199 11.7762 75.1478 11.7827 75.0755 11.7836C74.5919 11.7836 74.3504 11.5276 74.351 11.0155V9.52005H73.9922V9.33822L74.351 9.17973L74.5097 8.64301H74.7292V9.2264H75.4537V9.5181H74.7292V10.997C74.7209 11.1224 74.7592 11.2464 74.8366 11.3451C74.8735 11.3863 74.919 11.4187 74.9698 11.4401C75.0207 11.4614 75.0756 11.4712 75.1306 11.4686Z" fill="white"/>
<path d="M77.0227 11.7827C76.6532 11.7827 76.363 11.6695 76.1522 11.4433C75.9384 11.2168 75.832 10.9037 75.832 10.5011C75.832 10.0986 75.9287 9.77479 76.129 9.53656C76.226 9.41912 76.3486 9.32574 76.4873 9.26368C76.6261 9.20162 76.7772 9.17255 76.9289 9.17875C77.0678 9.17199 77.2065 9.1963 77.335 9.24994C77.4634 9.30358 77.5784 9.3852 77.6717 9.48892C77.862 9.71794 77.9597 10.0105 77.9454 10.3086V10.5497H76.2238C76.2315 10.844 76.3057 11.0677 76.4462 11.2206C76.5234 11.299 76.6162 11.36 76.7186 11.3996C76.821 11.4391 76.9306 11.4564 77.0401 11.4501C77.3143 11.4496 77.5856 11.3927 77.8371 11.2829V11.6222C77.715 11.676 77.5881 11.7177 77.4579 11.7467C77.3145 11.7736 77.1686 11.7857 77.0227 11.7827ZM76.9202 9.49768C76.8303 9.49275 76.7405 9.50761 76.657 9.54119C76.5735 9.57478 76.4982 9.6263 76.4366 9.69214C76.3086 9.84575 76.2345 10.0374 76.2257 10.2376H77.5324C77.5454 10.0407 77.4889 9.84549 77.3728 9.68631C77.3164 9.6226 77.2464 9.57254 77.168 9.53988C77.0896 9.50721 77.0049 9.49279 76.9202 9.49768Z" fill="white"/>
<path d="M79.5876 11.7827C79.2259 11.7827 78.9457 11.6708 78.7471 11.4472C78.5485 11.2236 78.4492 10.9069 78.4492 10.4972C78.4492 10.0765 78.5501 9.75243 78.752 9.5249C78.9538 9.29738 79.2407 9.18297 79.6128 9.18167C79.7338 9.18162 79.8544 9.19466 79.9726 9.22056C80.0704 9.23929 80.1656 9.26999 80.256 9.31196L80.139 9.63575C80.0504 9.59983 79.9588 9.57185 79.8652 9.55213C79.7793 9.53146 79.6914 9.52037 79.6031 9.51907C79.0956 9.51907 78.8419 9.84318 78.8419 10.4914C78.8419 10.7993 78.9038 11.0362 79.0276 11.2022C79.0926 11.2851 79.1766 11.3509 79.2725 11.3939C79.3684 11.4369 79.4732 11.4559 79.578 11.4491C79.7985 11.4469 80.0164 11.401 80.2193 11.314V11.6514C80.0221 11.7449 79.8056 11.7899 79.5876 11.7827Z" fill="white"/>
<path d="M82.5196 11.737V10.1161C82.5323 9.95123 82.4826 9.78764 82.3803 9.65811C82.3224 9.60355 82.2537 9.56186 82.1787 9.53573C82.1038 9.50959 82.0241 9.49961 81.9451 9.50643C81.682 9.50643 81.4895 9.57838 81.3647 9.72229C81.2399 9.86619 81.1829 10.1015 81.1829 10.4282V11.7418H80.8047V8.17142H81.1829V9.2507C81.1843 9.35893 81.1782 9.46713 81.1645 9.57449H81.1877C81.2647 9.45082 81.3751 9.35169 81.5059 9.28862C81.6527 9.21728 81.814 9.18164 81.977 9.18458C82.282 9.18458 82.5109 9.25751 82.6637 9.40336C82.8165 9.54921 82.893 9.78095 82.893 10.0986V11.7379L82.5196 11.737Z" fill="white"/>
<path d="M67.918 14.1474H68.8591C69.3021 14.1474 69.6222 14.2122 69.8196 14.3418C70.0169 14.4715 70.1155 14.6815 70.1155 14.9719C70.1224 15.1508 70.0635 15.3259 69.9501 15.4639C69.8236 15.6024 69.6522 15.6913 69.4665 15.7148V15.7381C69.9727 15.8243 70.2258 16.0917 70.2258 16.5403C70.2325 16.6727 70.2087 16.8049 70.1562 16.9265C70.1037 17.0481 70.0239 17.1559 69.9231 17.2413C69.7219 17.4092 69.4404 17.4932 69.0787 17.4932H67.918V14.1474ZM68.3049 15.5825H68.9442C69.2183 15.5825 69.4149 15.5391 69.5342 15.4522C69.6535 15.3654 69.7135 15.2198 69.7141 15.0157C69.7204 14.9361 69.705 14.8562 69.6698 14.7847C69.6345 14.7131 69.5807 14.6525 69.5139 14.6092C69.3804 14.5256 69.1676 14.4838 68.8755 14.4838H68.3049V15.5825ZM68.3049 15.9121V17.1665H69.0013C69.2702 17.1665 69.4726 17.114 69.6087 17.0089C69.6792 16.9491 69.7344 16.8733 69.7699 16.7877C69.8054 16.7022 69.8201 16.6093 69.8128 16.5169C69.8194 16.4291 69.8037 16.3409 69.7672 16.2608C69.7306 16.1807 69.6744 16.1113 69.6039 16.059C69.4646 15.9617 69.2537 15.9121 68.9694 15.9121H68.3049Z" fill="white"/>
<path d="M71.2424 14.9865V16.6161C71.2297 16.781 71.2795 16.9446 71.3817 17.0741C71.4395 17.1288 71.5082 17.1705 71.5832 17.1967C71.6582 17.2228 71.7379 17.2327 71.8169 17.2258C72.0749 17.2258 72.2661 17.1538 72.3905 17.0099C72.5114 16.867 72.5714 16.6317 72.5714 16.3069V14.9865H72.9505V17.498H72.6372L72.583 17.1616H72.5627C72.4849 17.2859 72.3726 17.3847 72.2396 17.4455C72.0919 17.5132 71.9309 17.5465 71.7686 17.5428C71.4649 17.5428 71.2372 17.4702 71.0857 17.325C70.9342 17.1798 70.8587 16.9474 70.8594 16.6278V14.9846L71.2424 14.9865Z" fill="white"/>
<path d="M75.364 16.8135C75.3689 16.9183 75.3476 17.0226 75.3021 17.117C75.2567 17.2114 75.1886 17.2929 75.1039 17.3541C74.9307 17.4805 74.6879 17.5486 74.3746 17.5486C74.1075 17.5622 73.8413 17.5077 73.6008 17.3901V17.0371C73.724 17.0994 73.8538 17.1477 73.9877 17.181C74.1174 17.2158 74.251 17.2338 74.3852 17.2345C74.5432 17.2428 74.7006 17.2093 74.8417 17.1373C74.8876 17.11 74.9261 17.0719 74.9538 17.0262C74.9816 16.9805 74.9978 16.9287 75.0011 16.8753C75.0043 16.8218 74.9945 16.7684 74.9724 16.7197C74.9504 16.6709 74.9168 16.6284 74.8746 16.5957C74.7223 16.4911 74.5563 16.4083 74.3813 16.3497C74.2086 16.2908 74.0423 16.2143 73.8851 16.1212C73.796 16.0659 73.7211 15.9903 73.6665 15.9005C73.6169 15.8115 73.5919 15.7108 73.594 15.6088C73.5911 15.5132 73.6124 15.4185 73.6559 15.3335C73.6994 15.2484 73.7636 15.1759 73.8426 15.1226C74.0448 14.995 74.2812 14.9332 74.5196 14.9457C74.7911 14.946 75.0596 15.0019 75.3089 15.11L75.1745 15.4192C74.9609 15.3239 74.731 15.271 74.4974 15.2636C74.3569 15.2549 74.2167 15.2841 74.0912 15.3482C74.0494 15.3711 74.0147 15.4051 73.9906 15.4464C73.9666 15.4876 73.9542 15.5347 73.9548 15.5825C73.9527 15.644 73.9708 15.7044 74.0061 15.7546C74.0508 15.8112 74.1072 15.8573 74.1714 15.8898C74.3134 15.961 74.4598 16.0231 74.6096 16.0755C74.9056 16.1834 75.1058 16.2933 75.2103 16.4032C75.3126 16.5146 75.3678 16.6618 75.364 16.8135Z" fill="white"/>
<path d="M75.9505 14.3049C75.9469 14.2698 75.9508 14.2343 75.9618 14.2008C75.9728 14.1673 75.9907 14.1365 76.0143 14.1104C76.0578 14.0708 76.1143 14.0488 76.173 14.0488C76.2316 14.0488 76.2882 14.0708 76.3316 14.1104C76.3558 14.1362 76.3741 14.1669 76.3855 14.2005C76.3968 14.234 76.4009 14.2696 76.3974 14.3049C76.4006 14.3401 76.3963 14.3756 76.385 14.4091C76.3737 14.4426 76.3555 14.4734 76.3316 14.4993C76.3108 14.5199 76.2862 14.5361 76.2591 14.547C76.232 14.5578 76.2031 14.5631 76.1739 14.5625C76.1445 14.5635 76.1151 14.5584 76.0876 14.5476C76.0602 14.5367 76.0352 14.5203 76.0143 14.4993C75.991 14.4731 75.9732 14.4423 75.9622 14.4088C75.9512 14.3753 75.9472 14.34 75.9505 14.3049ZM76.3606 17.498H75.9824V14.9865H76.3606V17.498Z" fill="white"/>
<path d="M78.8722 17.498V15.8732C78.885 15.7081 78.8353 15.5441 78.7329 15.4143C78.6748 15.3601 78.6061 15.3187 78.5311 15.2927C78.4561 15.2667 78.3766 15.2568 78.2976 15.2636C78.0397 15.2636 77.8482 15.3346 77.7231 15.4765C77.6012 15.6185 77.5403 15.8538 77.5403 16.1805V17.498H77.1602V14.9865H77.4677L77.5296 15.3297H77.548C77.6266 15.2031 77.7397 15.1018 77.874 15.038C78.0204 14.9705 78.1801 14.9372 78.3411 14.9408C78.6416 14.9408 78.8673 15.0137 79.0182 15.1596C79.1691 15.3054 79.2449 15.5388 79.2455 15.8596V17.498H78.8722Z" fill="white"/>
<path d="M81.0862 17.5447C80.9255 17.5525 80.765 17.5264 80.6151 17.4679C80.4651 17.4094 80.329 17.32 80.2156 17.2053C80.0016 16.9791 79.8945 16.665 79.8945 16.2632C79.8945 15.8613 79.9938 15.5394 80.1924 15.2976C80.2895 15.1805 80.412 15.0875 80.5505 15.0256C80.6891 14.9637 80.8399 14.9347 80.9914 14.9408C81.1304 14.9341 81.2693 14.9584 81.3979 15.0121C81.5265 15.0657 81.6417 15.1473 81.7352 15.251C81.9251 15.4802 82.0227 15.7726 82.0089 16.0706V16.3108H80.2872C80.295 16.6025 80.3685 16.83 80.5097 16.9827C80.5868 17.0611 80.6797 17.1221 80.7821 17.1616C80.8845 17.2012 80.9941 17.2184 81.1036 17.2121C81.3784 17.2111 81.65 17.1532 81.9015 17.042V17.3813C81.7772 17.4361 81.6475 17.4778 81.5147 17.5058C81.3735 17.5333 81.2299 17.5464 81.0862 17.5447ZM80.9836 15.2587C80.8938 15.254 80.8041 15.269 80.7206 15.3025C80.6371 15.3361 80.5618 15.3875 80.5 15.4532C80.3719 15.6067 80.2978 15.7985 80.2892 15.9987H81.5959C81.6091 15.8017 81.5526 15.6064 81.4363 15.4474C81.3799 15.3836 81.3099 15.3335 81.2315 15.3008C81.1531 15.2682 81.0684 15.2538 80.9836 15.2587Z" fill="white"/>
<path d="M84.2625 16.8135C84.2673 16.9183 84.246 17.0226 84.2006 17.117C84.1552 17.2114 84.087 17.2929 84.0023 17.3541C83.8292 17.4805 83.5854 17.5486 83.273 17.5486C83.0059 17.5619 82.7398 17.5074 82.4992 17.3901V17.0371C82.6224 17.0995 82.7522 17.1478 82.8861 17.181C83.0158 17.2158 83.1494 17.2338 83.2836 17.2345C83.4417 17.2427 83.599 17.2092 83.7402 17.1373C83.786 17.11 83.8245 17.0719 83.8523 17.0262C83.8801 16.9805 83.8963 16.9287 83.8995 16.8753C83.9028 16.8218 83.8929 16.7684 83.8709 16.7197C83.8488 16.6709 83.8153 16.6284 83.7731 16.5957C83.6204 16.4911 83.4541 16.4084 83.2788 16.3497C83.1062 16.2904 82.94 16.2139 82.7826 16.1212C82.6938 16.0656 82.6189 15.9901 82.564 15.9005C82.5152 15.8112 82.4906 15.7106 82.4924 15.6088C82.4896 15.5132 82.5109 15.4185 82.5543 15.3335C82.5978 15.2484 82.6621 15.1759 82.741 15.1226C82.9432 14.995 83.1797 14.9332 83.4181 14.9457C83.6896 14.946 83.9581 15.0019 84.2074 15.11L84.0729 15.4192C83.8593 15.324 83.6294 15.2711 83.3958 15.2636C83.2553 15.2547 83.115 15.2839 82.9896 15.3482C82.9477 15.3711 82.9129 15.405 82.8887 15.4463C82.8645 15.4875 82.8519 15.5346 82.8523 15.5825C82.8506 15.6441 82.8689 15.7045 82.9045 15.7546C82.9492 15.8112 83.0056 15.8573 83.0699 15.8898C83.2116 15.9609 83.3576 16.0229 83.5071 16.0755C83.803 16.1834 84.0033 16.2933 84.1077 16.4032C84.2111 16.5141 84.2667 16.6616 84.2625 16.8135Z" fill="white"/>
<path d="M86.489 16.8135C86.4939 16.9183 86.4726 17.0226 86.4271 17.117C86.3817 17.2114 86.3136 17.2929 86.2289 17.3541C86.0557 17.4805 85.8129 17.5486 85.4996 17.5486C85.2325 17.5619 84.9664 17.5074 84.7258 17.3901V17.0371C84.849 17.0995 84.9787 17.1478 85.1127 17.181C85.2424 17.2158 85.376 17.2338 85.5102 17.2345C85.6682 17.2427 85.8256 17.2092 85.9667 17.1373C86.0126 17.11 86.0511 17.0719 86.0788 17.0262C86.1066 16.9805 86.1228 16.9287 86.1261 16.8753C86.1293 16.8218 86.1195 16.7684 86.0974 16.7197C86.0754 16.6709 86.0418 16.6284 85.9996 16.5957C85.847 16.4911 85.6806 16.4084 85.5054 16.3497C85.333 16.2907 85.1671 16.2141 85.0101 16.1212C84.9208 16.066 84.8455 15.9903 84.7906 15.9005C84.7418 15.8112 84.7171 15.7106 84.719 15.6088C84.7161 15.5132 84.7374 15.4185 84.7809 15.3335C84.8244 15.2484 84.8886 15.1759 84.9676 15.1226C85.1698 14.995 85.4062 14.9332 85.6446 14.9457C85.9161 14.946 86.1846 15.0019 86.4339 15.11L86.2995 15.4192C86.0859 15.324 85.856 15.2711 85.6224 15.2636C85.4819 15.2547 85.3416 15.2839 85.2162 15.3482C85.1744 15.3711 85.1397 15.4051 85.1156 15.4464C85.0916 15.4876 85.0792 15.5347 85.0798 15.5825C85.0777 15.644 85.0958 15.7044 85.1311 15.7546C85.1758 15.8112 85.2322 15.8573 85.2964 15.8898C85.4381 15.9609 85.5842 16.0229 85.7336 16.0755C86.0306 16.1834 86.2308 16.2933 86.3353 16.4032C86.4376 16.5146 86.4928 16.6618 86.489 16.8135Z" fill="white"/>
</svg>
