<svg width="24" height="24" viewBox="0 0 24 24" fill="none" xmlns="http://www.w3.org/2000/svg">
<path d="M12.4987 22H4.07875C2.91875 22 1.96875 21.07 1.96875 19.93V5.08998C1.96875 2.46998 3.91875 1.27998 6.30875 2.44998L10.7487 4.62998C11.7087 5.09998 12.4987 6.34998 12.4987 7.40998V22Z" stroke="#0068FF" stroke-width="1.5" stroke-linecap="round" stroke-linejoin="round"/>
<path d="M21.97 15.0599V18.8399C21.97 20.9999 20.97 21.9999 18.81 21.9999H12.5V10.4199L12.97 10.5199L17.47 11.5299L19.5 11.9799C20.82 12.2699 21.9 12.9499 21.96 14.8699C21.97 14.9299 21.97 14.9899 21.97 15.0599Z" stroke="#0068FF" stroke-width="1.5" stroke-linecap="round" stroke-linejoin="round"/>
<path d="M5.5 9H8.97" stroke="#0068FF" stroke-width="1.5" stroke-linecap="round" stroke-linejoin="round"/>
<path d="M5.5 13H8.97" stroke="#0068FF" stroke-width="1.5" stroke-linecap="round" stroke-linejoin="round"/>
<path d="M17.4687 11.53V14.75C17.4687 15.99 16.4588 17 15.2188 17C13.9787 17 12.9688 15.99 12.9688 14.75V10.52L17.4687 11.53Z" stroke="#0068FF" stroke-width="1.5" stroke-linecap="round" stroke-linejoin="round"/>
<path d="M21.9587 14.87C21.8987 16.05 20.9188 17 19.7188 17C18.4787 17 17.4688 15.99 17.4688 14.75V11.53L19.4988 11.98C20.8188 12.27 21.8987 12.95 21.9587 14.87Z" stroke="#0068FF" stroke-width="1.5" stroke-linecap="round" stroke-linejoin="round"/>
</svg>
