<svg width="42" height="42" viewBox="0 0 42 42" fill="none" xmlns="http://www.w3.org/2000/svg">
<mask id="mask0_1848_5296" style="mask-type:alpha" maskUnits="userSpaceOnUse" x="0" y="0" width="42" height="42">
<circle cx="21" cy="21" r="21" fill="#D9D9D9"/>
</mask>
<g mask="url(#mask0_1848_5296)">
<circle cx="21" cy="21" r="21" fill="#D9D9D9"/>
</g>
<g clip-path="url(#clip0_1848_5296)">
<path fill-rule="evenodd" clip-rule="evenodd" d="M1 1H59V4.07812H1V1ZM1 7.15625H59V10.2344H1V7.15625ZM1 13.3047H59V16.3906H1V13.3047ZM1 19.4609H59V22.5391H1V19.4609ZM1 25.6172H59V28.6953H1V25.6172ZM1 31.7656H59V34.8438H1V31.7656ZM1 37.9219H59V41H1V37.9219Z" fill="#BD3D44"/>
<path fill-rule="evenodd" clip-rule="evenodd" d="M1 4.07812H59V7.15625H1V4.07812ZM1 10.2344H59V13.3047H1V10.2344ZM1 16.3828H59V19.4609H1V16.3828ZM1 22.5391H59V25.6094H1V22.5391ZM1 28.6953H59V31.7656H1V28.6953ZM1 34.8438H59V37.9219H1V34.8438Z" fill="white"/>
<path fill-rule="evenodd" clip-rule="evenodd" d="M1 1H24.1988V22.5391H1V1Z" fill="#192F5D"/>
<path fill-rule="evenodd" clip-rule="evenodd" d="M2.92516 1.92188L3.16365 2.78125H3.81949L3.27693 3.30469L3.48561 4.14062L2.92516 3.61719L2.40646 4.14062L2.62109 3.30469L2.05469 2.78125H2.75822L2.92516 1.92188ZM6.80058 1.92188L7.00925 2.78125H7.68894L7.1285 3.30469L7.36698 4.14062L6.80058 3.61719L6.23417 4.14062L6.47266 3.30469L5.90625 2.78125H6.58594L6.80058 1.92188ZM10.676 1.92188L10.8847 2.78125H11.5644L11.0039 3.30469L11.2424 4.14062L10.676 3.61719L10.1096 4.14062L10.3481 3.30469L9.78166 2.78125H10.4613L10.676 1.92188ZM14.5275 1.92188L14.7601 2.78125H15.4159L14.8793 3.30469L15.088 4.14062L14.5275 3.61719L13.985 4.14062L14.1937 3.30469L13.6332 2.78125H14.3368L14.5275 1.92188ZM18.403 1.92188L18.6116 2.78125H19.2913L18.7309 3.30469L18.9634 4.14062L18.3731 3.61719L17.8366 4.14062L18.0452 3.30469L17.4848 2.78125H18.1645L18.403 1.92188ZM22.2784 1.92188L22.487 2.78125H23.1667L22.6003 3.30469L22.8388 4.14062L22.2724 3.61719L21.712 4.14062L21.9504 3.30469L21.384 2.78125H22.0637L22.2784 1.92188ZM4.86883 4.07813L5.08347 4.9375H5.76912L5.20271 5.46094L5.4412 6.28906L4.87479 5.76562L4.30839 6.28906L4.54687 5.46094L3.98047 4.9375H4.66016L4.86883 4.07813ZM8.72636 4.07813L8.96484 4.9375H9.62068L9.07812 5.46094L9.2868 6.28906L8.72636 5.76562L8.18976 6.28906L8.39844 5.46094L7.83203 4.9375H8.53557L8.72636 4.07813ZM12.6018 4.07813L12.8104 4.9375H13.4901L12.9297 5.46094L13.1682 6.28906L12.6018 5.76562L12.0354 6.28906L12.2738 5.46094L11.7074 4.9375H12.3871L12.6018 4.07813ZM16.4772 4.07813L16.6859 4.9375H17.3655L16.8051 5.46094L17.0376 6.28906L16.4712 5.76562L15.9108 6.28906L16.1493 5.46094L15.5829 4.9375H16.2625L16.4772 4.07813ZM20.3228 4.07813L20.5613 4.9375H21.1933L20.6567 5.46094L20.8653 6.28906L20.2989 5.76562L19.7623 6.28906L19.971 5.46094L19.4106 4.9375H20.1141L20.3228 4.07813ZM2.94901 6.23438L3.13384 7.09375H3.84334L3.27693 7.61719L3.48561 8.44531L2.92516 7.92187L2.40646 8.44531L2.62109 7.61719L2.05469 7.09375H2.75822L2.94901 6.23438ZM6.80058 6.23438L7.00925 7.09375H7.68894L7.15234 7.61719L7.36102 8.44531L6.80058 7.92187L6.26398 8.44531L6.47266 7.61719L5.90625 7.09375H6.58594L6.80058 6.23438ZM10.676 6.23438L10.8847 7.09375H11.5644L11.0039 7.61719L11.2424 8.44531L10.676 7.92187L10.1096 8.44531L10.3481 7.61719L9.78166 7.09375H10.4613L10.676 6.23438ZM14.5275 6.23438L14.7601 7.09375H15.4159L14.8793 7.61719L15.088 8.44531L14.5275 7.92187L13.985 8.44531L14.1937 7.61719L13.6392 7.09375H14.3427L14.5275 6.23438ZM18.403 6.23438L18.6116 7.09375H19.2913L18.7547 7.61719L18.9634 8.44531L18.397 7.92187L17.8604 8.44531L18.0691 7.61719L17.5146 7.09375H18.1943L18.403 6.23438ZM22.2784 6.23438L22.487 7.09375H23.1667L22.6003 7.61719L22.8388 8.44531L22.2724 7.92187L21.712 8.44531L21.9504 7.61719L21.384 7.09375H22.0637L22.2784 6.23438ZM4.86883 8.38281L5.08347 9.24219H5.76912L5.20271 9.76562L5.4412 10.6016L4.87479 10.0781L4.30839 10.6016L4.54687 9.76562L3.98047 9.25H4.66016L4.86883 8.38281ZM8.72636 8.38281L8.96484 9.24219H9.62068L9.07812 9.76562L9.2868 10.6094L8.72636 10.0859L8.18976 10.6094L8.39844 9.77344L7.83203 9.25781H8.53557L8.72636 8.38281ZM12.6018 8.38281L12.8104 9.24219H13.4901L12.9535 9.76562L13.1622 10.6094L12.6018 10.0859L12.0592 10.6094L12.2679 9.77344L11.7074 9.25781H12.3871L12.6018 8.38281ZM16.4772 8.38281L16.6859 9.24219H17.3655L16.8051 9.76562L17.0376 10.6094L16.4712 10.0859L15.9108 10.6094L16.1493 9.77344L15.5829 9.25781H16.2625L16.4772 8.38281ZM20.3228 8.38281L20.5613 9.24219H21.1933L20.6567 9.76562L20.8653 10.6016L20.2989 10.0781L19.7623 10.6016L19.971 9.76562L19.4106 9.25H20.1141L20.3228 8.38281ZM2.94901 10.5391L3.13384 11.3984H3.84334L3.27693 11.9219L3.48561 12.7578L2.92516 12.2344L2.40646 12.7578L2.62109 11.9219L2.05469 11.3984H2.75822L2.94901 10.5391ZM6.80058 10.5391L7.00925 11.3984H7.68894L7.15234 11.9219L7.36102 12.7578L6.80058 12.2344L6.26398 12.7578L6.47266 11.9219L5.90625 11.3984H6.58594L6.80058 10.5391ZM10.676 10.5391L10.8847 11.3984H11.5644L11.0039 11.9219L11.2424 12.7578L10.676 12.2344L10.1096 12.7578L10.3481 11.9219L9.78166 11.3984H10.4613L10.676 10.5391ZM14.5275 10.5391L14.7601 11.3984H15.4159L14.8793 11.9219L15.088 12.7578L14.5275 12.2344L13.985 12.7578L14.1937 11.9219L13.6332 11.3984H14.3368L14.5275 10.5391ZM18.403 10.5391L18.6116 11.3984H19.2913L18.7547 11.9219L18.9634 12.7578L18.397 12.2344L17.8604 12.7578L18.0691 11.9219L17.5086 11.3984H18.1883L18.403 10.5391ZM22.2784 10.5391L22.487 11.3984H23.1667L22.6003 11.9219L22.8388 12.7578L22.2724 12.2344L21.712 12.7578L21.9504 11.9219L21.384 11.3984H22.0637L22.2784 10.5391ZM4.86883 12.6953L5.08347 13.5547H5.76912L5.20271 14.0781L5.4412 14.9062L4.87479 14.3828L4.30839 14.9062L4.54687 14.0781L3.98047 13.5547H4.66016L4.86883 12.6953ZM8.72636 12.6953L8.96484 13.5547H9.62068L9.07812 14.0781L9.2868 14.9062L8.72636 14.3828L8.18976 14.9062L8.39844 14.0781L7.83203 13.5547H8.53557L8.72636 12.6953ZM12.6018 12.6953L12.8104 13.5547H13.4901L12.9535 14.0781L13.1622 14.9062L12.6018 14.3828L12.0592 14.9062L12.2679 14.0781L11.7074 13.5547H12.3871L12.6018 12.6953ZM16.4772 12.6953L16.6859 13.5547H17.3655L16.8051 14.0781L17.0376 14.9062L16.4712 14.3828L15.9108 14.9062L16.1493 14.0781L15.5829 13.5547H16.2625L16.4772 12.6953ZM20.3228 12.6953L20.5613 13.5547H21.1933L20.6567 14.0781L20.8653 14.9062L20.2989 14.3828L19.7623 14.9062L19.971 14.0781L19.4106 13.5547H20.1141L20.3228 12.6953ZM2.94901 14.8438L3.13384 15.7031H3.84334L3.27693 16.2344L3.48561 17.0625L2.92516 16.5391L2.40646 17.0625L2.62109 16.2344L2.05469 15.7109H2.75822L2.94901 14.8438ZM6.80058 14.8438L7.00925 15.7031H7.68894L7.15234 16.2344L7.36102 17.0625L6.80058 16.5391L6.26398 17.0625L6.47266 16.2344L5.90625 15.7109H6.58594L6.80058 14.8438ZM10.676 14.8438L10.8847 15.7031H11.5644L11.0039 16.2344L11.2424 17.0625L10.676 16.5391L10.1096 17.0625L10.3481 16.2344L9.78166 15.7109H10.4613L10.676 14.8438ZM14.5275 14.8438L14.7601 15.7031H15.4159L14.8793 16.2344L15.088 17.0625L14.5275 16.5391L13.985 17.0625L14.1937 16.2344L13.6332 15.7109H14.3368L14.5275 14.8438ZM18.403 14.8438L18.6116 15.7031H19.2913L18.7547 16.2344L18.9634 17.0625L18.397 16.5391L17.8604 17.0625L18.0691 16.2344L17.5086 15.7109H18.1883L18.403 14.8438ZM22.2784 14.8438L22.487 15.7031H23.1667L22.6003 16.2344L22.8388 17.0625L22.2724 16.5391L21.712 17.0625L21.9504 16.2344L21.384 15.7109H22.0637L22.2784 14.8438ZM4.86883 17L5.08347 17.8594H5.76912L5.20271 18.3828L5.4412 19.2188L4.87479 18.6953L4.30839 19.2188L4.54687 18.3828L3.98047 17.8594H4.66016L4.86883 17ZM8.72636 17L8.96484 17.8594H9.62068L9.07812 18.3828L9.2868 19.2188L8.72636 18.6953L8.18976 19.2188L8.39844 18.3828L7.83203 17.8594H8.53557L8.72636 17ZM12.6018 17L12.8104 17.8594H13.4901L12.9535 18.3828L13.1622 19.2188L12.6018 18.6953L12.0592 19.2188L12.2679 18.3828L11.7074 17.8594H12.3871L12.6018 17ZM16.4772 17L16.6859 17.8594H17.3655L16.8051 18.3828L17.0376 19.2188L16.4712 18.6953L15.9108 19.2188L16.1493 18.3828L15.5829 17.8594H16.2625L16.4772 17ZM20.3228 17L20.5613 17.8594H21.1933L20.6567 18.3828L20.8653 19.2188L20.2989 18.6953L19.7623 19.2188L19.971 18.3828L19.4106 17.8594H20.1141L20.3228 17ZM2.94901 19.1562L3.13384 20.0156H3.84334L3.27693 20.5391L3.48561 21.3672L2.92516 20.8438L2.40646 21.3672L2.62109 20.5391L2.05469 20.0156H2.75822L2.94901 19.1562ZM6.80058 19.1562L7.00925 20.0156H7.68894L7.15234 20.5391L7.36102 21.3672L6.80058 20.8438L6.26398 21.3672L6.47266 20.5391L5.90625 20.0156H6.58594L6.80058 19.1562ZM10.676 19.1562L10.8847 20.0156H11.5644L11.0039 20.5391L11.2424 21.3672L10.676 20.8438L10.1096 21.3672L10.3481 20.5391L9.78166 20.0156H10.4613L10.676 19.1562ZM14.5275 19.1562L14.7601 20.0156H15.4159L14.8793 20.5391L15.088 21.3672L14.5275 20.8438L13.985 21.3672L14.1937 20.5391L13.6332 20.0156H14.3368L14.5275 19.1562ZM18.403 19.1562L18.6116 20.0156H19.2913L18.7547 20.5391L18.9634 21.3672L18.397 20.8438L17.8604 21.3672L18.0691 20.5391L17.5086 20.0156H18.1883L18.403 19.1562ZM22.2784 19.1562L22.487 20.0156H23.1667L22.6003 20.5391L22.8388 21.3672L22.2724 20.8438L21.712 21.3672L21.9504 20.5391L21.384 20.0156H22.0637L22.2784 19.1562Z" fill="white"/>
</g>
<defs>
<clipPath id="clip0_1848_5296">
<rect x="1" y="1" width="40" height="40" rx="20" fill="white"/>
</clipPath>
</defs>
</svg>
