<svg width="42" height="42" viewBox="0 0 42 42" fill="none" xmlns="http://www.w3.org/2000/svg">
<g clip-path="url(#clip0_1850_5970)">
<rect width="42" height="42" rx="21" fill="white"/>
<path d="M-11 0.833252H54V44.1671H-11V0.833252Z" fill="#0052B4"/>
<path d="M18.6851 24.7605C18.7083 24.7339 18.7312 24.7073 18.7542 24.6805C18.7312 24.7074 18.7078 24.7338 18.6845 24.7605H18.6851ZM15.7818 28.4209L16.7126 30.4213L18.8147 29.9221L17.8732 31.9173L19.5636 33.295L17.459 33.7826L17.4649 36L15.7818 34.6127L14.0987 36L14.1046 33.7826L12 33.295L13.6904 31.9173L12.7489 29.9221L14.8509 30.4213L15.7818 28.4209ZM32.5885 30.9059L33.0325 31.8601L34.0351 31.6219L33.5861 32.5736L34.3924 33.2308L33.3885 33.4633L33.3912 34.5209L32.5885 33.8593L31.7858 34.5209L31.7885 33.4633L30.7848 33.2308L31.591 32.5736L31.142 31.6219L32.1446 31.8601L32.5885 30.9059ZM28.4583 20.7839L28.9023 21.7382L29.9049 21.4999L29.4559 22.4516L30.2621 23.1089L29.2583 23.3413L29.261 24.399L28.4583 23.7373L27.6555 24.399L27.6583 23.3413L26.6545 23.1089L27.4607 22.4516L27.0118 21.4999L28.0143 21.7382L28.4583 20.7839ZM32.5885 15L33.0325 15.9542L34.0351 15.7159L33.5861 16.6677L34.3923 17.3248L33.3885 17.5574L33.3912 18.615L32.5885 17.9533L31.7858 18.615L31.7885 17.5574L30.7848 17.3248L31.591 16.6677L31.142 15.7159L32.1446 15.9542L32.5885 15ZM36.1961 19.338L36.6401 20.2921L37.6426 20.054L37.1938 21.0056L38 21.6627L36.9961 21.8953L36.9989 22.9529L36.1961 22.2913L35.3934 22.9529L35.3962 21.8953L34.3924 21.6627L35.1986 21.0056L34.7496 20.054L35.7522 20.2921L36.1961 19.338ZM33.6166 24.399L33.9657 25.5036H35.0958L34.1815 26.1863L34.5308 27.2909L33.6166 26.6083L32.7022 27.2909L33.0515 26.1863L32.1372 25.5036H33.2673L33.6166 24.399Z" fill="#F0F0F0"/>
<path d="M21.5 0.833252V4.71205L15.7659 7.89845H21.5V15.4343H13.9967L21.5 19.6028V22.4995H18.1129L8.7826 17.3165V22.4995H1.7174V16.333L-9.38211 22.4995H-11V18.6207L-5.26591 15.4343H-11V7.89845H-3.49669L-11 3.72854V0.833252H-7.61289L1.7174 6.01637V0.833252H8.7826V6.99975L19.8821 0.833252H21.5Z" fill="#F0F0F0"/>
<path d="M7.28125 0.832886H3.21875V9.6348H-11V13.6973H3.21875V22.4995H7.28125V13.6973H21.5V9.6348H7.28125V0.832886Z" fill="#D80027"/>
<path d="M8.78125 15.4343L21.4987 22.4995V20.5017L12.3775 15.4343H8.78125Z" fill="#0052B4"/>
<path d="M8.78125 15.4343L21.4987 22.4995V20.5017L12.3775 15.4343H8.78125Z" fill="#F0F0F0"/>
<path d="M8.7826 15.4343L21.5 22.4995V20.5017L12.3788 15.4343H8.7826ZM-1.87893 15.4343L-11 20.5017V22.4995L1.7174 15.4343H-1.87893Z" fill="#D80027"/>
<path d="M1.7174 7.89808L-11 0.832886V2.83075L-1.8788 7.89808H1.7174Z" fill="#0052B4"/>
<path d="M1.7174 7.89808L-11 0.832886V2.83075L-1.8788 7.89808H1.7174Z" fill="#F0F0F0"/>
<path d="M1.7174 7.89808L-11 0.832886V2.83075L-1.8788 7.89808H1.7174ZM12.3789 7.89808L21.5 2.83075V0.832886L8.7826 7.89808H12.3789Z" fill="#D80027"/>
</g>
<rect x="0.5" y="0.5" width="41" height="41" rx="20.5" stroke="#D9D9D9"/>
<defs>
<clipPath id="clip0_1850_5970">
<rect width="42" height="42" rx="21" fill="white"/>
</clipPath>
</defs>
</svg>
