<svg width="42" height="42" viewBox="0 0 42 42" fill="none" xmlns="http://www.w3.org/2000/svg">
<rect x="0.5" y="0.5" width="41" height="41" rx="20.5" fill="#0052B4"/>
<rect x="0.5" y="0.5" width="41" height="41" rx="20.5" stroke="#D9D9D9"/>
<path d="M21 5L21.8512 7.61917H24.605L22.377 9.238L23.228 11.8572L21 10.2385L18.772 11.8572L19.623 9.238L17.395 7.61917H20.1488L21 5ZM9.68633 9.68633L12.1402 10.9365L14.0875 8.98933L13.6565 11.7093L16.1103 12.9597L13.3903 13.3905L12.9595 16.1107L11.7092 13.6568L8.98933 14.0875L10.9367 12.1402L9.68633 9.68633ZM5 21L7.61917 20.149L7.61933 17.3952L9.23783 19.6232L11.8572 18.7722L10.2383 21L11.8572 23.228L9.23783 22.3772L7.61933 24.605V21.8512L5 21ZM9.68633 32.3138L10.9363 29.8598L8.98933 27.9127L11.7095 28.3435L12.9595 25.8897L13.3903 28.6098L16.1103 29.0405L13.6567 30.2908L14.0875 33.0107L12.1402 31.0635L9.68633 32.3138ZM21 37L20.1488 34.3808H17.395L19.6232 32.7622L18.772 30.143L21 31.7617L23.228 30.143L22.377 32.7622L24.605 34.3808H21.851L21 37ZM32.3137 32.3138L29.8598 31.0637L27.9125 33.011L28.3435 30.2907L25.8897 29.0405L28.6095 28.6098L29.0405 25.8897L30.2908 28.3435L33.0107 27.9127L31.0633 29.86L32.3137 32.3138ZM37 21L34.3808 21.8512V24.605L32.7622 22.3768L30.1428 23.228L31.7617 21L30.1428 18.7722L32.7622 19.623L34.3807 17.3952L34.3808 20.1492L37 21ZM32.3137 9.68633L31.0635 12.1402L33.0108 14.0875L30.2905 13.6565L29.0405 16.1105L28.6095 13.3905L25.8897 12.9597L28.3435 11.7093L27.9125 8.98933L29.8598 10.9367L32.3137 9.68633Z" fill="#FFDA44"/>
</svg>
