<svg width="42" height="42" viewBox="0 0 42 42" fill="none" xmlns="http://www.w3.org/2000/svg">
<mask id="mask0_1850_5947" style="mask-type:alpha" maskUnits="userSpaceOnUse" x="0" y="0" width="42" height="42">
<circle cx="21" cy="21" r="21" fill="#D9D9D9"/>
</mask>
<g mask="url(#mask0_1850_5947)">
<circle cx="21" cy="21" r="21" fill="#D9D9D9"/>
</g>
<g clip-path="url(#clip0_1850_5947)">
<path d="M1 1H41V41H1V1Z" fill="#012169"/>
<path d="M41 1V6L26.1562 21L41 35.6094V41H35.7656L20.8438 26.3125L6.3125 41H1V35.6875L15.5312 21.0781L1 6.78125V1H5.84375L20.8438 15.6875L35.375 1H41Z" fill="white"/>
<path d="M15.375 26.3125L16.2344 28.9688L4.28125 41H1V40.7656L15.375 26.3125ZM25.0625 25.375L29.2812 26L41 37.4844V41L25.0625 25.375ZM41 1L26 16.3125L25.6875 12.875L37.4062 1H41ZM1 1.07812L16.0781 15.8438L11.4688 15.2188L1 4.82812V1.07812Z" fill="#C8102E"/>
<path d="M14.75 1V41H27.25V1H14.75ZM1 14.75V27.25H41V14.75H1Z" fill="white"/>
<path d="M1 17.25V24.75H41V17.25H1ZM17.25 1V41H24.75V1H17.25Z" fill="#C8102E"/>
</g>
<defs>
<clipPath id="clip0_1850_5947">
<rect x="1" y="1" width="40" height="40" rx="20" fill="white"/>
</clipPath>
</defs>
</svg>
