<svg width="42" height="42" viewBox="0 0 42 42" fill="none" xmlns="http://www.w3.org/2000/svg">
<g clip-path="url(#clip0_1850_5996)">
<rect width="42" height="42" rx="21" fill="white"/>
<path d="M1 0.167114H62V40.8329H1V0.167114Z" fill="#F0F0F0"/>
<path d="M1 0.167114H62V20.5H1V0.167114Z" fill="#D80027"/>
<path d="M10.945 10.3333C10.945 7.37087 13.0271 4.89608 15.8074 4.28882C15.3719 4.19332 14.9273 4.14507 14.4814 4.1449C11.0635 4.1449 8.29297 6.91539 8.29297 10.3332C8.29297 13.751 11.0636 16.5216 14.4814 16.5216C14.9367 16.5216 15.38 16.4709 15.8074 16.3777C13.0271 15.7706 10.945 13.2959 10.945 10.3333ZM18.9016 4.58703L19.3405 5.93773H20.7608L19.6117 6.77254L20.0506 8.12324L18.9016 7.28854L17.7525 8.12324L18.1915 6.77254L17.0424 5.93773H18.4627L18.9016 4.58703Z" fill="#F0F0F0"/>
<path d="M15.4568 7.23914L15.8956 8.58983H17.3159L16.1668 9.42465L16.6057 10.7753L15.4568 9.94065L14.3077 10.7753L14.7468 9.42465L13.5977 8.58983H15.0179L15.4568 7.23914ZM22.3472 7.23914L22.7861 8.58983H24.2064L23.0573 9.42465L23.4962 10.7753L22.3472 9.94065L21.1982 10.7753L21.6373 9.42465L20.4882 8.58983H21.9084L22.3472 7.23914ZM21.0211 11.2174L21.46 12.5681H22.8803L21.7313 13.4029L22.1702 14.7536L21.0211 13.9189L19.8722 14.7536L20.3111 13.4029L19.1621 12.5681H20.5823L21.0211 11.2174ZM16.7829 11.2174L17.2217 12.5681H18.642L17.493 13.4029L17.9319 14.7536L16.7829 13.9189L15.6339 14.7536L16.0728 13.4029L14.9238 12.5681H16.344L16.7829 11.2174Z" fill="#F0F0F0"/>
</g>
<rect x="0.5" y="0.5" width="41" height="41" rx="20.5" stroke="#D9D9D9"/>
<defs>
<clipPath id="clip0_1850_5996">
<rect width="42" height="42" rx="21" fill="white"/>
</clipPath>
</defs>
</svg>
