<svg width="18" height="18" viewBox="0 0 18 18" fill="none" xmlns="http://www.w3.org/2000/svg">
<path d="M6.5 4H6.78072C6.98455 4 7.08654 4 7.18244 4.02303C7.26747 4.04344 7.3491 4.07719 7.42367 4.12288C7.50774 4.1744 7.57992 4.24659 7.72396 4.39063L10.2762 6.94291C10.4204 7.08703 10.492 7.1587 10.5436 7.24279C10.5893 7.31735 10.6235 7.39886 10.6439 7.48389C10.6667 7.57881 10.6667 7.67961 10.6667 7.8793V14M6.5 4H2.83301C2.3663 4 2.13318 4 1.95492 4.09083C1.79811 4.17072 1.67072 4.29811 1.59083 4.45492C1.5 4.63318 1.5 4.8667 1.5 5.33341V15.1667C1.5 15.6335 1.5 15.8665 1.59083 16.0447C1.67072 16.2016 1.79811 16.3294 1.95492 16.4093C2.133 16.5 2.36585 16.5 2.83166 16.5L9.33421 16.5C9.80001 16.5 10.0337 16.5 10.2118 16.4093C10.3686 16.3294 10.4956 16.2018 10.5755 16.0449C10.6663 15.8667 10.6667 15.6333 10.6667 15.1665V14M6.5 4V6.83333C6.5 7.30004 6.5 7.53324 6.59083 7.7115C6.67072 7.8683 6.79811 7.99603 6.95492 8.07593C7.133 8.16667 7.36584 8.16667 7.83164 8.16667H10.6663M7.33333 4.00008V2.83341C7.33333 2.3667 7.33333 2.13318 7.42416 1.95492C7.50406 1.79811 7.63145 1.67072 7.78825 1.59083C7.96651 1.5 8.19963 1.5 8.66634 1.5H12.3333M12.3333 1.5H12.6141C12.8179 1.5 12.9199 1.5 13.0158 1.52303C13.1008 1.54344 13.1824 1.57719 13.257 1.62288C13.3411 1.6744 13.4133 1.7466 13.5573 1.89063L16.1096 4.44291C16.2537 4.58704 16.3254 4.6587 16.3769 4.74279C16.4226 4.81735 16.4568 4.89886 16.4772 4.98389C16.5 5.07881 16.5 5.1796 16.5 5.3793V12.6665C16.5 13.1333 16.4997 13.3667 16.4089 13.545C16.329 13.7018 16.2024 13.8294 16.0456 13.9093C15.8676 14 15.6342 14 15.1684 14H10.6667M12.3333 1.5V4.33333C12.3333 4.80004 12.3333 5.03324 12.4242 5.2115C12.5041 5.3683 12.6314 5.49603 12.7882 5.57593C12.9663 5.66667 13.1992 5.66667 13.665 5.66667H16.4997" stroke="#0068FF" stroke-width="1.5" stroke-linecap="round" stroke-linejoin="round"/>
</svg>
