<svg width="14" height="18" viewBox="0 0 14 18" fill="none" xmlns="http://www.w3.org/2000/svg">
<path d="M4.5013 13.1667H9.5013M4.5013 10.6667H9.5013M7.83495 1.50073C7.75534 1.5 7.66578 1.5 7.56356 1.5H3.8348C2.90138 1.5 2.43432 1.5 2.0778 1.68166C1.7642 1.84145 1.50941 2.09623 1.34962 2.40983C1.16797 2.76635 1.16797 3.23341 1.16797 4.16683V13.8335C1.16797 14.7669 1.16797 15.2334 1.34963 15.5899C1.50941 15.9035 1.7642 16.1587 2.0778 16.3185C2.43397 16.5 2.90047 16.5 3.83208 16.5L10.1705 16.5C11.1021 16.5 11.568 16.5 11.9241 16.3185C12.2377 16.1587 12.4934 15.9035 12.6532 15.5899C12.8346 15.2337 12.8346 14.7679 12.8346 13.8363V6.7714C12.8346 6.66918 12.8345 6.57961 12.8338 6.5M7.83495 1.50073C8.07283 1.5029 8.22274 1.51172 8.36645 1.54623C8.53651 1.58705 8.69951 1.65439 8.84863 1.74577C9.01677 1.84881 9.16115 1.99318 9.44922 2.28125L12.0538 4.88582C12.342 5.17407 12.4854 5.3178 12.5884 5.486C12.6798 5.63512 12.7474 5.79771 12.7882 5.96777C12.8228 6.11149 12.8317 6.26212 12.8338 6.5M7.83495 1.50073L7.83464 3.83351C7.83464 4.76693 7.83464 5.23346 8.01629 5.58998C8.17608 5.90358 8.43086 6.15873 8.74447 6.31852C9.10064 6.5 9.56714 6.5 10.4987 6.5H12.8338" stroke="#0068FF" stroke-width="1.5" stroke-linecap="round" stroke-linejoin="round"/>
</svg>
